<svg width="960" height="640" viewBox="0 0 960 640" fill="none" xmlns="http://www.w3.org/2000/svg">
  <rect width="960" height="640" rx="36" fill="#07111F"/>
  <rect x="48" y="48" width="864" height="544" rx="28" fill="url(#bg1)" stroke="#1B365A"/>
  <path d="M120 470H840" stroke="#2C6D9F" stroke-width="2" opacity=".4"/>
  <path d="M120 400H840" stroke="#2C6D9F" stroke-width="2" opacity=".35"/>
  <path d="M120 330H840" stroke="#2C6D9F" stroke-width="2" opacity=".3"/>
  <g opacity=".95">
    <rect x="154" y="154" width="180" height="296" rx="18" fill="#0D1C31" stroke="#4DA3D9"/>
    <rect x="390" y="120" width="180" height="330" rx="18" fill="#0D1C31" stroke="#79D6E8"/>
    <rect x="626" y="170" width="180" height="280" rx="18" fill="#0D1C31" stroke="#F7B955"/>
  </g>
  <g fill="#7CE6F1">
    <rect x="180" y="190" width="128" height="10" rx="5"/>
    <rect x="180" y="230" width="128" height="10" rx="5"/>
    <rect x="180" y="270" width="128" height="10" rx="5"/>
    <rect x="180" y="310" width="128" height="10" rx="5"/>
    <rect x="180" y="350" width="128" height="10" rx="5"/>
  </g>
  <g fill="#F7B955">
    <circle cx="698" cy="224" r="8"/>
    <circle cx="698" cy="264" r="8"/>
    <circle cx="698" cy="304" r="8"/>
    <circle cx="698" cy="344" r="8"/>
  </g>
  <defs>
    <linearGradient id="bg1" x1="88" y1="96" x2="824" y2="560" gradientUnits="userSpaceOnUse">
      <stop stop-color="#0E2038"/>
      <stop offset="1" stop-color="#091421"/>
    </linearGradient>
  </defs>
</svg>
