<svg width="960" height="640" viewBox="0 0 960 640" fill="none" xmlns="http://www.w3.org/2000/svg">
  <rect width="960" height="640" rx="36" fill="#06101B"/>
  <rect x="60" y="70" width="840" height="500" rx="26" fill="url(#bg2)" stroke="#2D4E70"/>
  <rect x="120" y="134" width="720" height="80" rx="18" fill="#0E2033"/>
  <rect x="120" y="246" width="720" height="80" rx="18" fill="#0E2033"/>
  <rect x="120" y="358" width="720" height="80" rx="18" fill="#0E2033"/>
  <g opacity=".9">
    <rect x="160" y="152" width="110" height="14" rx="7" fill="#7CE6F1"/>
    <rect x="160" y="264" width="110" height="14" rx="7" fill="#7CE6F1"/>
    <rect x="160" y="376" width="110" height="14" rx="7" fill="#7CE6F1"/>
    <rect x="692" y="152" width="108" height="14" rx="7" fill="#F5B25E"/>
    <rect x="692" y="264" width="108" height="14" rx="7" fill="#F5B25E"/>
    <rect x="692" y="376" width="108" height="14" rx="7" fill="#F5B25E"/>
  </g>
  <path d="M272 168H680" stroke="#B6D3EE" stroke-opacity=".24" stroke-width="2"/>
  <path d="M272 280H680" stroke="#B6D3EE" stroke-opacity=".24" stroke-width="2"/>
  <path d="M272 392H680" stroke="#B6D3EE" stroke-opacity=".24" stroke-width="2"/>
  <defs>
    <linearGradient id="bg2" x1="120" y1="108" x2="780" y2="518" gradientUnits="userSpaceOnUse">
      <stop stop-color="#102338"/>
      <stop offset="1" stop-color="#091522"/>
    </linearGradient>
  </defs>
</svg>
